<svg xmlns="http://www.w3.org/2000/svg">
<symbol id="home" viewBox="0 0 56 56">
	<g>
		<path d="M28,0C12.561,0,0,12.561,0,28s12.561,28,28,28s28-12.561,28-28S43.439,0,28,0z M28,54C13.663,54,2,42.336,2,28
			S13.663,2,28,2s26,11.664,26,26S42.337,54,28,54z"/>
		<path d="M28.707,9.293c-0.391-0.391-1.023-0.391-1.414,0l-16,16c-0.286,0.286-0.372,0.716-0.217,1.09
			C11.231,26.756,11.596,27,12,27h3v18c0,0.552,0.447,1,1,1h8h8h8c0.553,0,1-0.448,1-1V27h3c0.404,0,0.77-0.244,0.924-0.617
			c0.155-0.374,0.069-0.804-0.217-1.09L28.707,9.293z M25,44V33h6v11H25z M39,44h-6V32c0-0.552-0.447-1-1-1h-8c-0.553,0-1,0.448-1,1
			v12h-6V27h22V44z M40,25H16h-1.586L28,11.414L41.586,25H40z"/>
	</g>
</symbol>
<symbol id="burger"  viewBox="0 0 329.988 329.988">
<g>
<path id="XMLID_227_" d="M329.988,174.915c0-19.47-12.441-36.085-29.79-42.331c-0.773-27.953-15.317-53.871-41.16-73.203
	c-25.264-18.899-58.62-29.307-93.923-29.307c-35.306,0-68.664,10.408-93.929,29.307c-25.819,19.313-40.361,45.201-41.161,73.123
	C12.554,138.684,0,155.357,0,174.915c0,19.565,12.539,36.247,29.994,42.441v17.557c0,35.841,29.159,65,65,65h140
	c35.841,0,65-29.159,65-65v-17.557C317.449,211.162,329.988,194.48,329.988,174.915z M285.228,189.925
	c-0.079-0.001-0.155-0.012-0.234-0.012h-240c-0.079,0-0.156,0.011-0.235,0.012C36.601,189.802,30,183.121,30,174.915
	c0-8.259,6.723-14.979,14.987-14.979H285c8.265,0,14.988,6.719,14.988,14.979C299.988,183.121,293.387,189.801,285.228,189.925z
	 M89.156,83.404c20.112-15.045,47.088-23.33,75.959-23.33c28.868,0,55.842,8.285,75.952,23.329
	c17.167,12.842,27.294,29.206,28.932,46.533H60.223C61.861,112.61,71.989,96.246,89.156,83.404z M234.994,269.913h-140
	c-19.299,0-35-15.701-35-35v-14.977h210v14.977C269.994,254.212,254.293,269.913,234.994,269.913z"/>
</g>
</symbol>
<symbol id="icon" viewBox="0 0 456.368 456.368">
		<g>
			<path d="M324.194,220.526c-6.172,7.772-13.106,14.947-21.07,21.423c45.459,26.076,76.149,75.1,76.149,131.158
				c0,30.29-66.367,54.018-151.09,54.018s-151.09-23.728-151.09-54.018c0-56.058,30.69-105.082,76.149-131.158
				c-7.963-6.476-14.897-13.65-21.07-21.423c-50.624,31.969-84.322,88.41-84.322,152.581c0,19.439,10.644,46.53,61.355,65.201
				c31.632,11.647,73.886,18.06,118.979,18.06c45.093,0,87.347-6.413,118.979-18.06c50.71-18.671,61.355-45.762,61.355-65.201
				C408.516,308.936,374.818,252.495,324.194,220.526z"/>
			<path d="M228.182,239.795c56.833,0,100.597-54.936,100.597-119.897C328.779,54.907,284.993,0,228.182,0
				c-56.833,0-100.597,54.936-100.597,119.897C127.585,184.888,171.372,239.795,228.182,239.795z M228.182,29.243
				c39.344,0,71.354,40.667,71.354,90.654s-32.01,90.654-71.354,90.654s-71.354-40.667-71.354-90.654S188.838,29.243,228.182,29.243
				z"/>
		</g>
</symbol>
</svg>